<?xml version="1.0" encoding="UTF-8"?>
<!DOCTYPE svg PUBLIC "-//W3C//DTD SVG 1.0//EN" "http://www.w3.org/TR/2001/REC-SVG-20010904/DTD/svg10.dtd">
<!-- Creator: CorelDRAW 2017 -->
<svg xmlns="http://www.w3.org/2000/svg" xml:space="preserve" width="11.0066mm" height="11.0066mm" version="1.0" style="shape-rendering:geometricPrecision; text-rendering:geometricPrecision; image-rendering:optimizeQuality; fill-rule:evenodd; clip-rule:evenodd"
viewBox="0 0 1100.66 1100.66"
 xmlns:xlink="http://www.w3.org/1999/xlink">
 <defs>
  <style type="text/css">
   <![CDATA[
    .fil0 {fill:#393185}
   ]]>
  </style>
 </defs>
 <g id="Слой_x0020_1">
  <metadata id="CorelCorpID_0Corel-Layer"/>
  <path class="fil0" d="M505.2 22.09l291.14 168.2 0 145.86 -513.34 0c-45.87,0 -86.73,6.74 -122.63,20.22l166.37 -288.34c35.48,-61.47 115.77,-82.16 178.46,-45.94zm455.7 263.27l69.17 39.96c62.69,36.2 84.93,116.13 49.45,177.63l-118.62 205.61 0 -423.2zm-64.19 534.46l-122.79 212.82c-35.48,61.48 -115.79,82.17 -178.46,45.94l-524.9 -303.22c-62.32,-36 -84.66,-115.23 -50.02,-176.58 2.49,42.76 12.79,79.9 30.95,111.42 42.03,73.09 119.21,109.62 231.51,109.62l613.71 0zm-592 -362.75c-38.12,0 -67.01,12.18 -86.72,36.53 -17.08,20.87 -25.62,49 -25.62,84.38 0,35.39 8.54,63.51 25.62,84.39 19.71,24.35 48.6,36.53 86.72,36.53l491.63 0 0 -241.83 -491.63 0z"/>
 </g>
</svg>
